<svg width="18" height="24" viewBox="0 0 18 24" fill="none" xmlns="http://www.w3.org/2000/svg">
<g clip-path="url(#clip0_492_938)">
<path d="M7.76412 0V2.43391L0 5.92056V3.6695L7.76412 0Z" fill="white"/>
<path d="M7.76412 3.48843V5.92057L0 9.40899V7.15794L7.76412 3.48843Z" fill="white"/>
<path d="M7.76412 6.97507V9.40897L0 12.8974V10.6446L7.76412 6.97507Z" fill="white"/>
<path d="M7.76412 10.4635V12.8974L0 16.3841V14.133L7.76412 10.4635Z" fill="white"/>
<path d="M7.76412 13.9519V16.384L0 19.8725V17.6214L7.76412 13.9519Z" fill="white"/>
<path d="M7.76367 13.9519V16.384L15.5278 19.8725V17.6214L7.76367 13.9519Z" fill="white"/>
<path d="M17.5367 18.0262C17.5367 18.0262 17.0729 18.4363 16.295 18.0174C15.5172 17.6002 15.7147 16.6273 15.7147 16.6273L14.75 16.0362L7.76367 12.8975V10.4653L15.1592 13.9786C15.1733 13.9857 15.1909 13.9928 15.2138 14.0035C15.2156 14.0035 15.2191 14.0052 15.2209 14.0052L15.3514 14.0656L15.4749 14.1242C15.489 14.1313 15.5049 14.1402 15.519 14.1473C16.041 14.4136 16.9741 14.9657 17.4027 15.7113C18.2616 17.3854 17.5367 18.0262 17.5367 18.0262Z" fill="white"/>
<path d="M7.76367 6.9751V9.40901L15.5278 12.8974V10.6446L7.76367 6.9751Z" fill="white"/>
<path d="M7.76367 3.48853V5.92066L15.5278 9.40908V7.15803L7.76367 3.48853Z" fill="white"/>
<path d="M7.76367 0V2.43391L15.5278 5.92056V3.6695L7.76367 0Z" fill="white"/>
<path d="M7.76412 17.4386V24H0V21.1081L7.76412 17.4386Z" fill="white"/>
<path d="M7.76367 17.4385V23.9999H15.5278V21.108L7.76367 17.4385Z" fill="white"/>
<path d="M15.2207 14.0051C15.2542 14.0211 15.2983 14.0406 15.3512 14.0655L15.2207 14.0051Z" fill="white"/>
</g>
<defs>
<clipPath id="clip0_492_938">
<rect width="18" height="24" fill="white"/>
</clipPath>
</defs>
</svg>
